<?xml version="1.0" encoding="utf-8"?>
<svg width="100%" height="100%" viewBox="0 0 100 100" xmlns="http://www.w3.org/2000/svg">
  <path d="M50 15C30.67 15 15 30.67 15 50s15.67 35 35 35 35-15.67 35-35S69.33 15 50 15zm-2.5 12.5h5v10h-5v-10zm0 15h5v35h-5v-35z" fill="#83CD29"/>
  <path d="M50 20c16.54 0 30 13.46 30 30s-13.46 30-30 30S20 66.54 20 50 33.46 20 50 20zm-2.5 10h5v10h-5V30zm0 15h5v35h-5V45z" fill="#83CD29"/>
  <path d="M50 20c16.54 0 30 13.46 30 30s-13.46 30-30 30S20 66.54 20 50 33.46 20 50 20zm-2.5 10h5v10h-5V30zm0 15h5v35h-5V45z" fill="#83CD29"/>
</svg>
