<svg xmlns="http://www.w3.org/2000/svg" viewBox="0 0 48 48" width="48" height="48">
  <path fill="#8cc84b" d="M24 4c-11.05 0-20 8.95-20 20s8.95 20 20 20 20-8.95 20-20-8.95-20-20-20zm-2 31c0 1.1-.9 2-2 2s-2-.9-2-2v-8c0-1.1.9-2 2-2s2 .9 2 2v8zm5.3-1.3c-.4.4-.9.5-1.3.5-.4 0-.9-.2-1.3-.5l-5-5c-.7-.7-.7-1.9 0-2.6.7-.7 1.9-.7 2.6 0l5 5c.7.7.7 1.9 0 2.6z"/>
  <path fill="#8cc84b" d="M31.3 24.4c.2-.2.4-.5.4-.8 0-.3-.1-.6-.4-.8l-4.2-4.2c-.5-.5-1.3-.5-1.8 0s-.5 1.3 0 1.8l3.4 3.4-3.4 3.4c-.5.5-.5 1.3 0 1.8s1.3.5 1.8 0l4.2-4.2z"/>
</svg>
