<svg xmlns="http://www.w3.org/2000/svg" viewBox="0 0 48 48" width="48" height="48">
  <path fill="#80deea" d="M24 34c-5.52 0-10-4.48-10-10s4.48-10 10-10 10 4.48 10 10-4.48 10-10 10zm0-17c-3.86 0-7 3.14-7 7s3.14 7 7 7 7-3.14 7-7-3.14-7-7-7z"/>
  <path fill="#80deea" d="M24 10.5c-7.45 0-13.5 2.69-13.5 6s6.05 6 13.5 6 13.5-2.69 13.5-6-6.05-6-13.5-6zm0 10.5c-6.34 0-11.5-1.57-11.5-3.5s5.16-3.5 11.5-3.5 11.5 1.57 11.5 3.5-5.16 3.5-11.5 3.5z"/>
  <path fill="#80deea" d="M24 37.5c-7.45 0-13.5-2.69-13.5-6s6.05-6 13.5-6 13.5 2.69 13.5 6-6.05 6-13.5 6zm0-10.5c-6.34 0-11.5 1.57-11.5 3.5s5.16 3.5 11.5 3.5 11.5-1.57 11.5-3.5-5.16-3.5-11.5-3.5z"/>
</svg>
